<?xml version="1.0" encoding="utf-8"?>
<!-- Generator: Adobe Illustrator 24.1.1, SVG Export Plug-In . SVG Version: 6.00 Build 0)  -->
<svg version="1.1" id="Layer_1" xmlns="http://www.w3.org/2000/svg" xmlns:xlink="http://www.w3.org/1999/xlink" x="0px" y="0px"
	 viewBox="0 0 512 512" style="enable-background:new 0 0 512 512;" xml:space="preserve">
<style type="text/css">
	.st0{fill:#B2B2B2;}
</style>
<path class="st0" d="M34.5,239L228.9,44.7c9.4-9.4,24.6-9.4,33.9,0l22.7,22.7c9.4,9.4,9.4,24.5,0,33.9L131.5,256l154,154.7
	c9.3,9.4,9.3,24.5,0,33.9l-22.7,22.7c-9.4,9.4-24.6,9.4-33.9,0L34.5,273C25.2,263.6,25.2,248.4,34.5,239z M226.5,273l194.3,194.3
	c9.4,9.4,24.6,9.4,33.9,0l22.7-22.7c9.4-9.4,9.4-24.5,0-33.9L323.5,256l154-154.7c9.3-9.4,9.3-24.5,0-33.9l-22.7-22.7
	c-9.4-9.4-24.6-9.4-33.9,0L226.5,239C217.2,248.4,217.2,263.6,226.5,273z"/>
</svg>
