<svg xmlns="http://www.w3.org/2000/svg" width="206.84" height="23.841" viewBox="0 0 206.84 23.841">
  <g id="그룹_1" data-name="그룹 1" transform="translate(-64.584 -138.362)">
    <path id="패스_1" data-name="패스 1" d="M64.584,146.437h3.893v11.98a6.421,6.421,0,0,0,.819,3.5,2.989,2.989,0,0,0,2.724,1.273,5.637,5.637,0,0,0,1.906-.282A2.8,2.8,0,0,0,75.2,162a3.93,3.93,0,0,0,.712-1.635,11.964,11.964,0,0,0,.215-2.453V146.437h3.893v11.731a11.183,11.183,0,0,1-.524,3.638,6.183,6.183,0,0,1-1.543,2.5,6.286,6.286,0,0,1-2.51,1.45,11.294,11.294,0,0,1-3.4.469q-3.759,0-5.611-1.932t-1.852-6.335Z" transform="translate(0 -4.293)" fill="#cb1871"/>
    <path id="패스_2" data-name="패스 2" d="M104.98,138.362h2.555v3.8h3.78v2.386h-3.78v3.759H104.98v-3.759H101.2v-2.386h3.78Z" transform="translate(-19.464)" fill="#cb1871"/>
    <path id="패스_3" data-name="패스 3" d="M139.976,155.007H147.2v-1.182h-2.914a1.251,1.251,0,0,1-1.436-1.394v-6.99h11.846v2.2h-9v.908h8.7v2.133h-8.7v.612a.364.364,0,0,0,.074.275.458.458,0,0,0,.285.063h8.637v2.2h-4.5v1.182h7.2v2.323H139.976Zm2.893,7.032a3.824,3.824,0,0,1,.327-1.6,3.253,3.253,0,0,1,1.024-1.246,5.037,5.037,0,0,1,1.795-.813,10.72,10.72,0,0,1,2.661-.285,10.851,10.851,0,0,1,2.671.285,5.041,5.041,0,0,1,1.805.813,3.258,3.258,0,0,1,1.024,1.246,4.076,4.076,0,0,1,0,3.2,3.157,3.157,0,0,1-1.024,1.246,5.169,5.169,0,0,1-1.805.8,10.85,10.85,0,0,1-2.671.285,10.718,10.718,0,0,1-2.661-.285,5.165,5.165,0,0,1-1.795-.8,3.153,3.153,0,0,1-1.024-1.246A3.842,3.842,0,0,1,142.868,162.038Zm3.02-.021a1.34,1.34,0,0,0,.7,1.309,6.3,6.3,0,0,0,4.192,0,1.345,1.345,0,0,0,.686-1.309,1.325,1.325,0,0,0-.686-1.288,6.3,6.3,0,0,0-4.192,0A1.321,1.321,0,0,0,145.888,162.017Z" transform="translate(-40.077 -3.763)" fill="#595b5e"/>
    <path id="패스_4" data-name="패스 4" d="M181.976,152.775a3.159,3.159,0,0,1,.908-2.26h-2.112v-2.238h11.276v2.238h-2.069a3.451,3.451,0,0,1,.686,1.035,3.1,3.1,0,0,1,.243,1.225,4.1,4.1,0,0,1-.253,1.468,2.734,2.734,0,0,1-.8,1.13,3.841,3.841,0,0,1-1.394.718,7.1,7.1,0,0,1-2.027.253,4.93,4.93,0,0,1-3.4-.971A3.357,3.357,0,0,1,181.976,152.775Zm1.71-8.235a6.36,6.36,0,0,0,1.637.475,11.879,11.879,0,0,0,2.059.179H189.2v2.133h-2.7a11.763,11.763,0,0,1-1.679-.126,6.656,6.656,0,0,1-1.468-.359Zm3.716,12.986v1.731h5.554v-1.731h2.914v7.686h-9.988q-1.415,0-1.415-1.478v-6.208Zm-2.7-4.9q0,1.669,1.753,1.669a1.839,1.839,0,0,0,1.32-.4,1.7,1.7,0,0,0,.412-1.267,1.723,1.723,0,0,0-.412-1.235,1.753,1.753,0,0,0-1.32-.433Q184.7,150.959,184.7,152.627ZM192.956,163v-1.52H187.4v1.183a.3.3,0,0,0,.338.338Zm0-18.118h2.914v4.984h2.872v2.386H195.87v4.139h-2.914Z" transform="translate(-61.763 -3.284)" fill="#595b5e"/>
    <path id="패스_5" data-name="패스 5" d="M234.393,145.557v14.275q0,1.014-.084,2.133a15.678,15.678,0,0,1-.253,1.943h-2.407V153.032h-1.964v5.11h-6.4a1.688,1.688,0,0,1-1.193-.4,1.562,1.562,0,0,1-.432-1.2v-10.22h8.024v4.329h1.964v-5.089ZM224.51,155.5q0,.337.317.338h2.006v-7.222H224.51Zm13.958-10.242v14.824q0,.57-.021,1.182t-.064,1.2q-.042.591-.105,1.14t-.148.95h-2.47v-19.3Z" transform="translate(-83.499 -3.667)" fill="#595b5e"/>
    <path id="패스_6" data-name="패스 6" d="M266.639,146.021h2.956v3.64a8.636,8.636,0,0,0,.275,2.275,5.553,5.553,0,0,0,.855,1.809,6,6,0,0,0,1.489,1.428,10.412,10.412,0,0,0,2.175,1.111l-1.415,2.387a8.9,8.9,0,0,1-1.33-.655,9.463,9.463,0,0,1-1.288-.919,8.55,8.55,0,0,1-1.119-1.14,6.05,6.05,0,0,1-.824-1.32,7.385,7.385,0,0,1-2.048,2.449A13.023,13.023,0,0,1,263.3,158.9l-1.161-1.985a10.245,10.245,0,0,0,2.154-1.288,5.816,5.816,0,0,0,1.383-1.573,6.317,6.317,0,0,0,.74-1.953,12.117,12.117,0,0,0,.222-2.428Zm8.742-.76h2.935v15.246q0,.992-.106,2.111t-.253,1.943h-2.576Z" transform="translate(-105.018 -3.667)" fill="#595b5e"/>
    <path id="패스_7" data-name="패스 7" d="M314.09,146.063v2.386h-3.7v.252a4.606,4.606,0,0,0,1.2,3.4,6.925,6.925,0,0,0,3.336,1.735l-1.309,2.386a7.056,7.056,0,0,1-1.267-.49,8.587,8.587,0,0,1-1.256-.761A7.658,7.658,0,0,1,310,154a4.861,4.861,0,0,1-.792-1.116,5.284,5.284,0,0,1-.834,1.127,7.339,7.339,0,0,1-1.193,1,9.994,9.994,0,0,1-1.478.824,12.268,12.268,0,0,1-1.669.615l-1.056-1.9a10.332,10.332,0,0,0,2.1-1.006,5.008,5.008,0,0,0,1.341-1.248,4.312,4.312,0,0,0,.708-1.584,9.018,9.018,0,0,0,.2-1.992v-.273H303.68v-2.386Zm-6.483,15.2a4.757,4.757,0,0,1,.3-1.678,3.531,3.531,0,0,1,.961-1.394,4.862,4.862,0,0,1,1.731-.961,8.255,8.255,0,0,1,2.608-.359,8.538,8.538,0,0,1,2.65.359,4.965,4.965,0,0,1,1.764.961,3.489,3.489,0,0,1,.971,1.394,4.757,4.757,0,0,1,.3,1.678,4.849,4.849,0,0,1-.3,1.69,3.477,3.477,0,0,1-.971,1.4,4.957,4.957,0,0,1-1.764.96,8.523,8.523,0,0,1-2.65.359,8.24,8.24,0,0,1-2.608-.359,4.854,4.854,0,0,1-1.731-.96,3.518,3.518,0,0,1-.961-1.4A4.849,4.849,0,0,1,307.607,161.267Zm3.041,0a2.034,2.034,0,0,0,.654,1.637,2.887,2.887,0,0,0,1.922.56,2.959,2.959,0,0,0,1.964-.56,2.034,2.034,0,0,0,.655-1.637,1.99,1.99,0,0,0-.655-1.584,2.921,2.921,0,0,0-1.964-.57,2.85,2.85,0,0,0-1.922.57A1.989,1.989,0,0,0,310.648,161.267Zm8.489-16.006v8.13q0,.654-.053,1.478a10.366,10.366,0,0,1-.222,1.584H316.2V145.261Z" transform="translate(-126.728 -3.667)" fill="#595b5e"/>
    <path id="패스_8" data-name="패스 8" d="M367.675,151.13a4.058,4.058,0,0,0-1.436-1.119,4.651,4.651,0,0,0-1.964-.38q-4.075,0-4.075,5.7,0,5.109,4.054,5.109a8.78,8.78,0,0,0,2.313-.3,15.937,15.937,0,0,0,2.038-.7l.7,2.366a8.016,8.016,0,0,1-1.1.506,9.937,9.937,0,0,1-1.3.391,12.929,12.929,0,0,1-1.415.243,12.508,12.508,0,0,1-1.425.084q-3.759,0-5.406-2.048a9.263,9.263,0,0,1-1.626-5.849q0-3.948,1.858-5.923a6.9,6.9,0,0,1,5.28-1.974,8.588,8.588,0,0,1,1.457.126,7.744,7.744,0,0,1,1.436.391,7.056,7.056,0,0,1,1.32.665,5.039,5.039,0,0,1,1.108.972Z" transform="translate(-155.46 -4.722)" fill="#595b5e"/>
    <path id="패스_9" data-name="패스 9" d="M388.5,147.74h3.083v12.923h6.251v2.386H388.5Z" transform="translate(-172.187 -4.985)" fill="#595b5e"/>
    <path id="패스_10" data-name="패스 10" d="M418.214,147.245a8.015,8.015,0,0,1,3.146.549,5.058,5.058,0,0,1,2.08,1.583,6.676,6.676,0,0,1,1.151,2.513,14.074,14.074,0,0,1,.359,3.315q0,3.928-1.785,5.881t-5.48,1.953a7.949,7.949,0,0,1-3.167-.559,5.016,5.016,0,0,1-2.069-1.605,6.6,6.6,0,0,1-1.119-2.513,14.74,14.74,0,0,1-.338-3.3q0-3.948,1.764-5.881T418.214,147.245Zm.021,2.322a4.439,4.439,0,0,0-1.932.38,3.111,3.111,0,0,0-1.277,1.119,5.031,5.031,0,0,0-.7,1.805,12.628,12.628,0,0,0-.211,2.439,12.1,12.1,0,0,0,.169,2.069,5.441,5.441,0,0,0,.571,1.7,3.076,3.076,0,0,0,1.077,1.15,3.128,3.128,0,0,0,1.689.423,4.607,4.607,0,0,0,2-.38,3.069,3.069,0,0,0,1.267-1.109,4.793,4.793,0,0,0,.665-1.795,14.123,14.123,0,0,0,.19-2.46,12.741,12.741,0,0,0-.158-2.048,5.262,5.262,0,0,0-.56-1.7A3.174,3.174,0,0,0,419.945,150,3.12,3.12,0,0,0,418.235,149.567Z" transform="translate(-184.144 -4.722)" fill="#595b5e"/>
    <path id="패스_11" data-name="패스 11" d="M446.063,147.74h3.062v9.424a5.052,5.052,0,0,0,.644,2.751,2.352,2.352,0,0,0,2.143,1,4.428,4.428,0,0,0,1.5-.222,2.2,2.2,0,0,0,1-.716,3.1,3.1,0,0,0,.559-1.286,9.411,9.411,0,0,0,.169-1.929V147.74H458.2v9.228a8.805,8.805,0,0,1-.412,2.861,4.865,4.865,0,0,1-1.214,1.964,4.95,4.95,0,0,1-1.974,1.14,8.876,8.876,0,0,1-2.671.37,5.847,5.847,0,0,1-4.413-1.52q-1.457-1.52-1.457-4.983Z" transform="translate(-202.787 -4.985)" fill="#595b5e"/>
    <path id="패스_12" data-name="패스 12" d="M478.565,147.74h4.962a12.319,12.319,0,0,1,3.379.423,6.266,6.266,0,0,1,2.5,1.341,5.746,5.746,0,0,1,1.552,2.387,10.564,10.564,0,0,1,.528,3.558,8.812,8.812,0,0,1-.654,3.611,6,6,0,0,1-1.806,2.344,7.151,7.151,0,0,1-2.713,1.267,14.3,14.3,0,0,1-3.379.38h-4.371Zm3.083,2.386v10.537h1.162a9.028,9.028,0,0,0,2.28-.265,3.978,3.978,0,0,0,1.71-.9,4.136,4.136,0,0,0,1.077-1.685,7.838,7.838,0,0,0,.38-2.64,5.077,5.077,0,0,0-1.278-3.827,4.885,4.885,0,0,0-3.516-1.219Z" transform="translate(-220.064 -4.985)" fill="#595b5e"/>
  </g>
</svg>
