<?xml version="1.0" encoding="utf-8"?>
<!-- Generator: Adobe Illustrator 24.1.1, SVG Export Plug-In . SVG Version: 6.00 Build 0)  -->
<svg version="1.1" id="Layer_1" xmlns="http://www.w3.org/2000/svg" xmlns:xlink="http://www.w3.org/1999/xlink" x="0px" y="0px"
	 viewBox="0 0 512 512" style="enable-background:new 0 0 512 512;" xml:space="preserve">
<style type="text/css">
	.st0{fill:#B2B2B2;}
</style>
<path class="st0" d="M477.5,273L283.1,467.3c-9.4,9.4-24.6,9.4-33.9,0l-22.7-22.7c-9.4-9.4-9.4-24.5,0-33.9l154-154.7l-154-154.7
	c-9.3-9.4-9.3-24.5,0-33.9l22.7-22.7c9.4-9.4,24.6-9.4,33.9,0L477.5,239C486.8,248.4,486.8,263.6,477.5,273z M285.5,239L91.1,44.7
	c-9.4-9.4-24.6-9.4-33.9,0L34.5,67.4c-9.4,9.4-9.4,24.5,0,33.9l154,154.7l-154,154.7c-9.3,9.4-9.3,24.5,0,33.9l22.7,22.7
	c9.4,9.4,24.6,9.4,33.9,0L285.5,273C294.8,263.6,294.8,248.4,285.5,239z"/>
</svg>
