<svg xmlns="http://www.w3.org/2000/svg" xmlns:xlink="http://www.w3.org/1999/xlink" width="300" height="300" viewBox="0 0 300 300">
  <defs>
    <clipPath id="clip-path">
      <rect width="100" height="39" fill="none"/>
    </clipPath>
  </defs>
  <g id="그룹_3182" data-name="그룹 3182" transform="translate(-350 -407)">
    <g id="box" transform="translate(350 407)" fill="#fff" stroke="#d5d5d5" stroke-width="1">
      <rect width="300" height="300" stroke="none"/>
      <rect x="0.5" y="0.5" width="299" height="299" fill="none"/>
    </g>
    <g id="그룹_2189" data-name="그룹 2189" transform="translate(89 69)">
      <g id="사각형_493" data-name="사각형 493" transform="translate(341 398)" fill="#f4f4f4" stroke="#d4d4d4" stroke-width="1">
        <path d="M4,0H136a4,4,0,0,1,4,4V91a0,0,0,0,1,0,0H0a0,0,0,0,1,0,0V4A4,4,0,0,1,4,0Z" stroke="none"/>
        <path d="M4,.5H136A3.5,3.5,0,0,1,139.5,4V90a.5.5,0,0,1-.5.5H1A.5.5,0,0,1,.5,90V4A3.5,3.5,0,0,1,4,.5Z" fill="none"/>
      </g>
      <g id="사각형_500" data-name="사각형 500" transform="translate(341 488)" fill="#fff" stroke="#d4d4d4" stroke-width="1">
        <path d="M0,0H140a0,0,0,0,1,0,0V86a4,4,0,0,1-4,4H4a4,4,0,0,1-4-4V0A0,0,0,0,1,0,0Z" stroke="none"/>
        <path d="M1,.5H139a.5.5,0,0,1,.5.5V86a3.5,3.5,0,0,1-3.5,3.5H4A3.5,3.5,0,0,1,.5,86V1A.5.5,0,0,1,1,.5Z" fill="none"/>
      </g>
      <g id="그룹_2182" data-name="그룹 2182" transform="translate(0 2)">
        <rect id="사각형_504" data-name="사각형 504" width="100" height="14" transform="translate(361 501)" fill="#ddd"/>
        <g id="반복_그리드_1" data-name="반복 그리드 1" transform="translate(361 523)" clip-path="url(#clip-path)">
          <g transform="translate(-361 -523)">
            <rect id="사각형_505" data-name="사각형 505" width="100" height="6" transform="translate(361 523)" fill="#eee"/>
          </g>
          <g transform="translate(-361 -513)">
            <rect id="사각형_505-2" data-name="사각형 505" width="100" height="6" transform="translate(361 523)" fill="#eee"/>
          </g>
          <g transform="translate(-361 -503)">
            <rect id="사각형_505-3" data-name="사각형 505" width="100" height="6" transform="translate(361 523)" fill="#eee"/>
          </g>
          <g transform="translate(-361 -493)">
            <rect id="사각형_505-4" data-name="사각형 505" width="100" height="6" transform="translate(361 523)" fill="#eee"/>
          </g>
        </g>
      </g>
      <text id="image" transform="translate(411 451)" fill="#acacac" font-size="20" font-family="FontAwesome5Pro-Light, 'Font Awesome \35  Pro'" font-weight="300"><tspan x="-10" y="0">image</tspan></text>
    </g>
  </g>
</svg>
