<svg id="LG유플러스로고" xmlns="http://www.w3.org/2000/svg" width="126.021" height="25.369" viewBox="0 0 126.021 25.369">
  <g id="그룹_3901" data-name="그룹 3901">
    <path id="패스_3418" data-name="패스 3418" d="M12.684,0A12.684,12.684,0,1,0,25.369,12.684,12.7,12.7,0,0,0,12.684,0Z" fill="#c3004d"/>
    <path id="패스_3419" data-name="패스 3419" d="M24.255,13.079v.48A10.628,10.628,0,1,1,13.627,3h.48V4.028h-.48a9.6,9.6,0,1,0,9.6,10.079H16.644V13.079ZM13.079,8.005V19.113h3.565V18.084H14.107V8.005ZM8.005,9.514A1.508,1.508,0,1,0,9.514,8.005,1.522,1.522,0,0,0,8.005,9.514Z" transform="translate(-0.943 -0.943)" fill="#fff"/>
  </g>
  <path id="패스_3420" data-name="패스 3420" d="M50.145,7.243H46.1V22.4H57.07V19.1H50.145Zm32.362,7.611A7.834,7.834,0,0,0,87.924,13a3.041,3.041,0,0,0,.96-2.125,3.041,3.041,0,0,0-.96-2.125,7.9,7.9,0,0,0-5.417-1.783c-3.565,0-6.445,1.783-6.445,3.908A3.041,3.041,0,0,0,77.023,13,8.144,8.144,0,0,0,82.508,14.853Zm-3.223-4.8a5.78,5.78,0,0,1,6.582,0,1.448,1.448,0,0,1,.48.891c0,1.028-1.714,1.92-3.7,1.92a5.094,5.094,0,0,1-3.291-1.028,1.448,1.448,0,0,1-.48-.891A1,1,0,0,1,79.285,10.054Zm26.6.754h-1.92v-1.3h1.646V7.586h-12.2v1.92h1.646v1.3h-1.92v1.92H105.82v-1.92Zm-4.594,0H97.8v-1.3h3.5Zm25.026,3.908a9.906,9.906,0,0,0,6.445-3.223,9.6,9.6,0,0,0,6.445,3.223h.343V12.659h-.274c-2.331-.343-4.937-2.948-4.937-5.005V7.243h-3.154v.48c0,2.057-2.605,4.662-4.937,5.005h-.274v2.057h.274ZM93.478,17.733h9.53v.411h-9.53v2.537a1.467,1.467,0,0,0,.48,1.234,2.012,2.012,0,0,0,1.3.48h10.422v-1.92h-9.53V20h9.53V15.813h-12.2ZM112.059,14.1h5.348V7.586h-8.022V9.643h5.348v2.468h-5.348v4.937a1.467,1.467,0,0,0,.48,1.234,2.012,2.012,0,0,0,1.3.48h6.719V16.7h-5.828Zm-37.23,3.84h2.88v4.525h2.605V17.939H84.7v4.525h2.674V17.939h2.88V15.882H74.828Zm17-2.674h15.5V13.276h-15.5v1.988Zm28.523-3.223H118.23V14.1h2.125v8.3h2.674V7.243h-2.674ZM65.572,16.5h3.085s0,3.36-3.154,3.36a2.791,2.791,0,0,1-2.057-.823,5.777,5.777,0,0,1-1.3-4.182c0-3.085,1.234-4.937,3.291-4.937a2.522,2.522,0,0,1,2.537,1.988h4.251A4.481,4.481,0,0,0,70.372,8.34a8.612,8.612,0,0,0-10.353.617,8.216,8.216,0,0,0-2.125,5.965,8.706,8.706,0,0,0,2.194,6.308,5.956,5.956,0,0,0,4.251,1.714c3.7,0,4.594-2.263,4.594-2.263v1.851h3.36V13.825H65.641V16.5Zm59.445,1.646V20.2h15.5V18.145Z" transform="translate(-14.492 -2.169)" fill="#7c7c7b"/>
</svg>
