<svg xmlns="http://www.w3.org/2000/svg" xmlns:xlink="http://www.w3.org/1999/xlink" width="350" height="629" viewBox="0 0 350 629">
  <defs>
    <filter id="사각형_682" x="0" y="0" width="350" height="629" filterUnits="userSpaceOnUse">
      <feOffset dx="10" dy="10" input="SourceAlpha"/>
      <feGaussianBlur stdDeviation="10" result="blur"/>
      <feFlood flood-opacity="0.09"/>
      <feComposite operator="in" in2="blur"/>
      <feComposite in="SourceGraphic"/>
    </filter>
    <filter id="타원_92" x="127" y="218" width="76" height="76" filterUnits="userSpaceOnUse">
      <feOffset dy="3" input="SourceAlpha"/>
      <feGaussianBlur stdDeviation="3" result="blur-2"/>
      <feFlood flood-opacity="0.161"/>
      <feComposite operator="in" in2="blur-2"/>
      <feComposite in="SourceGraphic"/>
    </filter>
    <clipPath id="clip-path">
      <rect width="197" height="40" fill="none"/>
    </clipPath>
  </defs>
  <g id="그룹_3901" data-name="그룹 3901" transform="translate(-300 -163)">
    <g transform="matrix(1, 0, 0, 1, 300, 163)" filter="url(#사각형_682)">
      <g id="사각형_682-2" data-name="사각형 682" transform="translate(20 20)" fill="#fff" stroke="#ddd" stroke-width="1">
        <rect width="290" height="569" rx="28" stroke="none"/>
        <rect x="0.5" y="0.5" width="289" height="568" rx="27.5" fill="none"/>
      </g>
    </g>
    <path id="패스_3401" data-name="패스 3401" d="M18.7,0H252.447c10.328,0,18.7,9.869,18.7,22.044V529.05c0,12.174-8.372,22.044-18.7,22.044H18.7C8.372,551.094,0,541.225,0,529.05V22.044C0,9.869,8.372,0,18.7,0Z" transform="translate(329.427 191.906)" fill="#fafafa"/>
    <path id="패스_3407" data-name="패스 3407" d="M10,0H230c5.523,0,10,5.931,10,13.248V310H0V13.248C0,5.931,4.477,0,10,0Z" transform="translate(585 725.5) rotate(180)" fill="#ededed"/>
    <path id="패스_3406" data-name="패스 3406" d="M10,0H230c5.523,0,10,3.827,10,8.547V200H0V8.547C0,3.827,4.477,0,10,0Z" transform="translate(345 216)" fill="#ddd"/>
    <circle id="타원_22" data-name="타원 22" cx="5" cy="5" r="5" transform="translate(460 199)" fill="#505050"/>
    <text id="image" transform="translate(465 335)" fill="#bbb9ba" font-size="50" font-family="FontAwesome5Pro-Light, 'Font Awesome \35  Pro'" font-weight="300"><tspan x="-25" y="0">image</tspan></text>
    <g transform="matrix(1, 0, 0, 1, 300, 163)" filter="url(#타원_92)">
      <circle id="타원_92-2" data-name="타원 92" cx="29" cy="29" r="29" transform="translate(136 224)" fill="#fff"/>
    </g>
    <text id="home" transform="translate(465 424)" fill="#fd004e" font-size="20" font-family="FontAwesome5Pro-Light, 'Font Awesome \35  Pro'" font-weight="300"><tspan x="-11.25" y="0">home</tspan></text>
    <g id="반복_그리드_9" data-name="반복 그리드 9" transform="translate(367 455)" clip-path="url(#clip-path)">
      <g transform="translate(-345 -469)">
        <rect id="사각형_752" data-name="사각형 752" width="40" height="40" transform="translate(345 469)" fill="none"/>
        <text id="comment" transform="translate(365 495)" fill="#666" font-size="14" font-family="FontAwesome5Pro-Solid, 'Font Awesome \35  Pro'"><tspan x="-7" y="0">comment</tspan></text>
      </g>
      <g transform="translate(-295 -469)">
        <rect id="사각형_752-2" data-name="사각형 752" width="40" height="40" transform="translate(345 469)" fill="none"/>
        <text id="phone-alt" transform="translate(365 495)" fill="#666" font-size="14" font-family="FontAwesome5Pro-Solid, 'Font Awesome \35  Pro'"><tspan x="-7" y="0">phone-alt</tspan></text>
      </g>
      <g transform="translate(-245 -469)">
        <rect id="사각형_752-3" data-name="사각형 752" width="40" height="40" transform="translate(345 469)" fill="none"/>
        <text id="globe" transform="translate(365 495)" fill="#666" font-size="14" font-family="FontAwesome5Pro-Solid, 'Font Awesome \35  Pro'"><tspan x="-6.781" y="0">globe</tspan></text>
      </g>
      <g transform="translate(-195 -469)">
        <rect id="사각형_752-4" data-name="사각형 752" width="40" height="40" transform="translate(345 469)" fill="none"/>
        <text id="shopping-bag" transform="translate(365 495)" fill="#666" font-size="14" font-family="FontAwesome5Pro-Solid, 'Font Awesome \35  Pro'"><tspan x="-6.125" y="0">shopping-bag</tspan></text>
      </g>
    </g>
  </g>
</svg>
