<svg xmlns="http://www.w3.org/2000/svg" width="80" height="116" viewBox="0 0 80 116">
  <g id="그룹_3702" data-name="그룹 3702" transform="translate(0.075)">
    <g id="사각형_736" data-name="사각형 736" transform="translate(-0.075)" fill="#fff" stroke="#d5d5d5" stroke-width="1">
      <rect width="80" height="116" stroke="none"/>
      <rect x="0.5" y="0.5" width="79" height="115" fill="none"/>
    </g>
    <rect id="사각형_739" data-name="사각형 739" width="63" height="7" transform="translate(8.925 10)" fill="#ddd"/>
    <rect id="사각형_740" data-name="사각형 740" width="63" height="3" transform="translate(8.925 21)" fill="#e9e9e9"/>
    <rect id="사각형_879" data-name="사각형 879" width="63" height="3" transform="translate(8.925 49)" fill="#e9e9e9"/>
    <rect id="사각형_883" data-name="사각형 883" width="63" height="3" transform="translate(8.925 77)" fill="#e9e9e9"/>
    <rect id="사각형_741" data-name="사각형 741" width="63" height="3" transform="translate(8.925 28)" fill="#e9e9e9"/>
    <rect id="사각형_880" data-name="사각형 880" width="63" height="3" transform="translate(8.925 56)" fill="#e9e9e9"/>
    <rect id="사각형_884" data-name="사각형 884" width="63" height="3" transform="translate(8.925 84)" fill="#e9e9e9"/>
    <rect id="사각형_742" data-name="사각형 742" width="63" height="3" transform="translate(8.925 35)" fill="#e9e9e9"/>
    <rect id="사각형_881" data-name="사각형 881" width="63" height="3" transform="translate(8.925 63)" fill="#e9e9e9"/>
    <rect id="사각형_885" data-name="사각형 885" width="63" height="3" transform="translate(8.925 91)" fill="#e9e9e9"/>
    <rect id="사각형_747" data-name="사각형 747" width="63" height="3" transform="translate(8.925 42)" fill="#e9e9e9"/>
    <rect id="사각형_882" data-name="사각형 882" width="63" height="3" transform="translate(8.925 70)" fill="#e9e9e9"/>
    <rect id="사각형_886" data-name="사각형 886" width="63" height="3" transform="translate(8.925 98)" fill="#e9e9e9"/>
  </g>
</svg>
