<svg id="그룹_3198" data-name="그룹 3198" xmlns="http://www.w3.org/2000/svg" width="83" height="116" viewBox="0 0 83 116">
  <g id="그룹_3191" data-name="그룹 3191">
    <g id="사각형_819" data-name="사각형 819" fill="#fff" stroke="#d5d5d5" stroke-width="1">
      <rect width="74" height="107" stroke="none"/>
      <rect x="0.5" y="0.5" width="73" height="106" fill="none"/>
    </g>
    <rect id="사각형_824" data-name="사각형 824" width="58" height="7" transform="translate(8 58)" fill="#ddd"/>
    <rect id="사각형_825" data-name="사각형 825" width="58" height="47" transform="translate(8 7)" fill="#f1f1f1"/>
    <rect id="사각형_823" data-name="사각형 823" width="58" height="3" transform="translate(8 68)" fill="#e9e9e9"/>
    <rect id="사각형_820" data-name="사각형 820" width="58" height="2" transform="translate(8 75)" fill="#e9e9e9"/>
    <rect id="사각형_821" data-name="사각형 821" width="58" height="3" transform="translate(8 81)" fill="#e9e9e9"/>
    <rect id="사각형_822" data-name="사각형 822" width="58" height="2" transform="translate(8 88)" fill="#e9e9e9"/>
    <text id="image-polaroid" transform="translate(27 40)" fill="#d5d5d5" font-size="24" font-family="FontAwesome5Pro-Solid, 'Font Awesome \35  Pro'"><tspan x="0" y="0">image-polaroid</tspan></text>
  </g>
  <g id="그룹_3192" data-name="그룹 3192" transform="translate(5 5)">
    <g id="사각형_819-2" data-name="사각형 819" fill="#fff" stroke="#d5d5d5" stroke-width="1">
      <rect width="73" height="107" stroke="none"/>
      <rect x="0.5" y="0.5" width="72" height="106" fill="none"/>
    </g>
    <rect id="사각형_824-2" data-name="사각형 824" width="58" height="6" transform="translate(8 58)" fill="#ddd"/>
    <rect id="사각형_825-2" data-name="사각형 825" width="58" height="47" transform="translate(8 7)" fill="#f1f1f1"/>
    <rect id="사각형_823-2" data-name="사각형 823" width="58" height="3" transform="translate(8 68)" fill="#e9e9e9"/>
    <rect id="사각형_820-2" data-name="사각형 820" width="58" height="3" transform="translate(8 74)" fill="#e9e9e9"/>
    <rect id="사각형_821-2" data-name="사각형 821" width="58" height="3" transform="translate(8 81)" fill="#e9e9e9"/>
    <rect id="사각형_822-2" data-name="사각형 822" width="58" height="3" transform="translate(8 87)" fill="#e9e9e9"/>
    <text id="image-polaroid-2" data-name="image-polaroid" transform="translate(26 40)" fill="#d5d5d5" font-size="24" font-family="FontAwesome5Pro-Solid, 'Font Awesome \35  Pro'"><tspan x="0" y="0">image-polaroid</tspan></text>
  </g>
  <g id="그룹_3193" data-name="그룹 3193" transform="translate(9 9)">
    <g id="사각형_819-3" data-name="사각형 819" fill="#fff" stroke="#d5d5d5" stroke-width="1">
      <rect width="74" height="107" stroke="none"/>
      <rect x="0.5" y="0.5" width="73" height="106" fill="none"/>
    </g>
    <rect id="사각형_824-3" data-name="사각형 824" width="58" height="7" transform="translate(9 58)" fill="#ddd"/>
    <rect id="사각형_825-3" data-name="사각형 825" width="58" height="47" transform="translate(9 8)" fill="#f1f1f1"/>
    <rect id="사각형_823-3" data-name="사각형 823" width="58" height="3" transform="translate(9 68)" fill="#e9e9e9"/>
    <rect id="사각형_820-3" data-name="사각형 820" width="58" height="3" transform="translate(9 75)" fill="#e9e9e9"/>
    <rect id="사각형_821-3" data-name="사각형 821" width="58" height="3" transform="translate(9 81)" fill="#e9e9e9"/>
    <rect id="사각형_822-3" data-name="사각형 822" width="58" height="3" transform="translate(9 88)" fill="#e9e9e9"/>
    <text id="image-polaroid-3" data-name="image-polaroid" transform="translate(27 41)" fill="#d5d5d5" font-size="24" font-family="FontAwesome5Pro-Solid, 'Font Awesome \35  Pro'"><tspan x="0" y="0">image-polaroid</tspan></text>
  </g>
</svg>
