<svg xmlns="http://www.w3.org/2000/svg" width="80" height="116" viewBox="0 0 80 116">
  <g id="그룹_3205" data-name="그룹 3205" transform="translate(-0.462)">
    <g id="사각형_785" data-name="사각형 785" transform="translate(0.462)" fill="#fff" stroke="#d5d5d5" stroke-width="1">
      <rect width="80" height="116" stroke="none"/>
      <rect x="0.5" y="0.5" width="79" height="115" fill="none"/>
    </g>
    <rect id="사각형_788" data-name="사각형 788" width="28" height="7" transform="translate(44.462 8)" fill="#ddd"/>
    <rect id="사각형_787" data-name="사각형 787" width="32" height="99" transform="translate(9.462 8)" fill="#f1f1f1"/>
    <rect id="사각형_789" data-name="사각형 789" width="28" height="3" transform="translate(44.462 19)" fill="#e9e9e9"/>
    <rect id="사각형_793" data-name="사각형 793" width="28" height="3" transform="translate(44.462 47)" fill="#e9e9e9"/>
    <rect id="사각형_797" data-name="사각형 797" width="28" height="3" transform="translate(44.462 89)" fill="#e9e9e9"/>
    <rect id="사각형_790" data-name="사각형 790" width="28" height="3" transform="translate(44.462 26)" fill="#e9e9e9"/>
    <rect id="사각형_794" data-name="사각형 794" width="28" height="3" transform="translate(44.462 54)" fill="#e9e9e9"/>
    <rect id="사각형_798" data-name="사각형 798" width="28" height="3" transform="translate(44.462 96)" fill="#e9e9e9"/>
    <rect id="사각형_791" data-name="사각형 791" width="28" height="3" transform="translate(44.462 33)" fill="#e9e9e9"/>
    <rect id="사각형_802" data-name="사각형 802" width="28" height="3" transform="translate(44.462 75)" fill="#e9e9e9"/>
    <rect id="사각형_795" data-name="사각형 795" width="28" height="3" transform="translate(44.462 61)" fill="#e9e9e9"/>
    <rect id="사각형_799" data-name="사각형 799" width="28" height="3" transform="translate(44.462 103)" fill="#e9e9e9"/>
    <rect id="사각형_792" data-name="사각형 792" width="28" height="3" transform="translate(44.462 40)" fill="#e9e9e9"/>
    <rect id="사각형_801" data-name="사각형 801" width="28" height="3" transform="translate(44.462 82)" fill="#e9e9e9"/>
    <rect id="사각형_796" data-name="사각형 796" width="28" height="3" transform="translate(44.462 68)" fill="#e9e9e9"/>
    <text id="image-polaroid" transform="translate(17.463 64)" fill="#d5d5d5" font-size="19" font-family="FontAwesome5Pro-Solid, 'Font Awesome \35  Pro'"><tspan x="0" y="0">image-polaroid</tspan></text>
  </g>
</svg>
