<svg xmlns="http://www.w3.org/2000/svg" xmlns:xlink="http://www.w3.org/1999/xlink" width="300" height="300" viewBox="0 0 300 300">
  <defs>
    <clipPath id="clip-path">
      <rect width="58" height="75" fill="none"/>
    </clipPath>
  </defs>
  <g id="그룹_3183" data-name="그룹 3183" transform="translate(-1123 -407)">
    <g id="box" transform="translate(1123 407)" fill="#fff" stroke="#d5d5d5" stroke-width="1">
      <rect width="300" height="300" stroke="none"/>
      <rect x="0.5" y="0.5" width="299" height="299" fill="none"/>
    </g>
    <g id="그룹_2187" data-name="그룹 2187" transform="translate(691.629 91)">
      <g id="그룹_2185" data-name="그룹 2185" transform="translate(501 398)">
        <g id="사각형_497" data-name="사각형 497" transform="translate(0.371)" fill="#f4f4f4" stroke="#d4d4d4" stroke-width="1">
          <path d="M4,0H80a0,0,0,0,1,0,0V137a0,0,0,0,1,0,0H4a4,4,0,0,1-4-4V4A4,4,0,0,1,4,0Z" stroke="none"/>
          <path d="M4,.5H79a.5.5,0,0,1,.5.5V136a.5.5,0,0,1-.5.5H4A3.5,3.5,0,0,1,.5,133V4A3.5,3.5,0,0,1,4,.5Z" fill="none"/>
        </g>
        <g id="사각형_501" data-name="사각형 501" transform="translate(79.371)" fill="#fff" stroke="#d4d4d4" stroke-width="1">
          <path d="M0,0H77a4,4,0,0,1,4,4V133a4,4,0,0,1-4,4H0a0,0,0,0,1,0,0V0A0,0,0,0,1,0,0Z" stroke="none"/>
          <path d="M1,.5H77A3.5,3.5,0,0,1,80.5,4V133a3.5,3.5,0,0,1-3.5,3.5H1a.5.5,0,0,1-.5-.5V1A.5.5,0,0,1,1,.5Z" fill="none"/>
        </g>
      </g>
      <text id="image" transform="translate(540.371 475)" fill="#acacac" font-size="23" font-family="FontAwesome5Pro-Light, 'Font Awesome \35  Pro'" font-weight="300"><tspan x="-11.5" y="0">image</tspan></text>
      <g id="그룹_2183" data-name="그룹 2183" transform="translate(592.641 416.328)">
        <rect id="사각형_504" data-name="사각형 504" width="58" height="16" transform="translate(-0.27 -0.328)" fill="#ddd"/>
        <g id="반복_그리드_1" data-name="반복 그리드 1" transform="translate(-0.27 25.672)" clip-path="url(#clip-path)">
          <g transform="translate(-361 -523)">
            <rect id="사각형_505" data-name="사각형 505" width="100" height="6" transform="translate(361 523)" fill="#eee"/>
          </g>
          <g transform="translate(-361 -513)">
            <rect id="사각형_505-2" data-name="사각형 505" width="100" height="6" transform="translate(361 523)" fill="#eee"/>
          </g>
          <g transform="translate(-361 -503)">
            <rect id="사각형_505-3" data-name="사각형 505" width="100" height="6" transform="translate(361 523)" fill="#eee"/>
          </g>
          <g transform="translate(-361 -493)">
            <rect id="사각형_505-4" data-name="사각형 505" width="100" height="6" transform="translate(361 523)" fill="#eee"/>
          </g>
          <g transform="translate(-361 -483)">
            <rect id="사각형_505-5" data-name="사각형 505" width="100" height="6" transform="translate(361 523)" fill="#eee"/>
          </g>
          <g transform="translate(-361 -473)">
            <rect id="사각형_505-6" data-name="사각형 505" width="100" height="6" transform="translate(361 523)" fill="#eee"/>
          </g>
          <g transform="translate(-361 -463)">
            <rect id="사각형_505-7" data-name="사각형 505" width="100" height="6" transform="translate(361 523)" fill="#eee"/>
          </g>
          <g transform="translate(-361 -453)">
            <rect id="사각형_505-8" data-name="사각형 505" width="100" height="6" transform="translate(361 523)" fill="#eee"/>
          </g>
        </g>
      </g>
    </g>
  </g>
</svg>
