<svg xmlns="http://www.w3.org/2000/svg" width="130.622" height="23.643" viewBox="0 0 130.622 23.643">
  <g id="그룹_3889" data-name="그룹 3889" transform="translate(-67.076 -456.925)">
    <g id="그룹_3887" data-name="그룹 3887" transform="translate(102.127 460.667)">
      <path id="패스_3918" data-name="패스 3918" d="M197.883,469.869v13.678q0,.973-.081,2.044a15.081,15.081,0,0,1-.242,1.861h-2.307V477.033h-1.882v4.9h-6.132a1.618,1.618,0,0,1-1.143-.384,1.5,1.5,0,0,1-.415-1.154V470.6h7.69v4.148h1.882v-4.876Zm-9.47,9.531q0,.323.3.323h1.923V472.8h-2.226Zm13.375-9.814v14.205q0,.547-.02,1.133t-.061,1.153q-.041.566-.1,1.093t-.142.911H199.1v-18.5Z" transform="translate(-185.681 -469.586)" fill="#595b5e"/>
      <path id="패스_3919" data-name="패스 3919" d="M251.48,470.314h2.833V473.8a8.283,8.283,0,0,0,.263,2.18,5.324,5.324,0,0,0,.819,1.734,5.747,5.747,0,0,0,1.427,1.368,9.985,9.985,0,0,0,2.084,1.065l-1.356,2.286a8.6,8.6,0,0,1-1.275-.627,9.051,9.051,0,0,1-1.234-.88,8.183,8.183,0,0,1-1.072-1.093,5.783,5.783,0,0,1-.789-1.265,7.09,7.09,0,0,1-1.963,2.347,12.486,12.486,0,0,1-2.934,1.74l-1.113-1.9a9.834,9.834,0,0,0,2.064-1.234,5.578,5.578,0,0,0,1.325-1.508,6.06,6.06,0,0,0,.708-1.872,11.572,11.572,0,0,0,.212-2.327Zm8.378-.728h2.813V484.2q0,.95-.1,2.023t-.243,1.861h-2.469Z" transform="translate(-228.998 -469.586)" fill="#595b5e"/>
      <path id="패스_3920" data-name="패스 3920" d="M310.213,470.557h9.895v2.286h-3.44v.828a9.218,9.218,0,0,0,.233,2.169,5.287,5.287,0,0,0,.749,1.725,5.144,5.144,0,0,0,1.356,1.352,8.982,8.982,0,0,0,2.054,1.03l-1.356,2.347a9.714,9.714,0,0,1-2.458-1.529,6.385,6.385,0,0,1-1.75-2.356,6.806,6.806,0,0,1-1.953,2.386,11.25,11.25,0,0,1-2.884,1.661l-1.113-1.862a8.927,8.927,0,0,0,2.074-1.251,5.7,5.7,0,0,0,1.305-1.534,5.943,5.943,0,0,0,.678-1.867,12.192,12.192,0,0,0,.192-2.251v-.848h-3.582Zm11.9-.971H324.9V484.2q0,.95-.1,2.023t-.243,1.861h-2.448Z" transform="translate(-272.94 -469.586)" fill="#595b5e"/>
      <path id="패스_3921" data-name="패스 3921" d="M392.519,478.732a3.7,3.7,0,0,1,1.032-2.671h-2.044v-2.186h10.725v2.186h-2.044a5,5,0,0,1,.414.516,2.821,2.821,0,0,1,.314.576h3.1v-7.567H406.8V484.2q0,.95-.1,2.023t-.243,1.861h-2.448v-8.641H401.18a3.7,3.7,0,0,1-1.224,2.417,4.566,4.566,0,0,1-3.106.922,5.693,5.693,0,0,1-1.973-.3,3.609,3.609,0,0,1-1.346-.84,3.239,3.239,0,0,1-.769-1.275A5.212,5.212,0,0,1,392.519,478.732Zm1.6-9.065a4.161,4.161,0,0,0,.819.272q.475.113.971.193a9.888,9.888,0,0,0,.991.112q.5.03.9.03h1.7v2.166h-2.55a13.586,13.586,0,0,1-1.679-.112,6.878,6.878,0,0,1-1.5-.334Zm2.752,7.042a1.818,1.818,0,0,0-1.295.455,1.9,1.9,0,0,0-.486,1.447q0,1.983,1.78,1.983a1.711,1.711,0,0,0,1.366-.485,2.27,2.27,0,0,0,.415-1.5,1.927,1.927,0,0,0-.476-1.447A1.81,1.81,0,0,0,396.869,476.709Z" transform="translate(-330.68 -469.586)" fill="#595b5e"/>
      <path id="패스_3922" data-name="패스 3922" d="M469.277,483.935v2.286H452.583v-2.286Zm-11.514-12.363v2.691h6.314v-2.691h2.772v9.571H456.61a1.631,1.631,0,0,1-1.214-.394,1.762,1.762,0,0,1-.384-1.265v-7.912Zm6.314,7.285V476.55h-6.314V478.5a.414.414,0,0,0,.071.289.323.323,0,0,0,.233.07Z" transform="translate(-373.706 -470.985)" fill="#595b5e"/>
    </g>
    <g id="그룹_3888" data-name="그룹 3888" transform="translate(67.076 456.925)">
      <path id="패스_3923" data-name="패스 3923" d="M67.076,469.765h3.905v12.019a6.439,6.439,0,0,0,.822,3.509,3,3,0,0,0,2.733,1.277,5.659,5.659,0,0,0,1.912-.282,2.815,2.815,0,0,0,1.28-.914,3.943,3.943,0,0,0,.713-1.64,11.976,11.976,0,0,0,.216-2.46V469.765h3.905v11.769a11.219,11.219,0,0,1-.525,3.649,6.211,6.211,0,0,1-1.548,2.5,6.305,6.305,0,0,1-2.518,1.455,11.341,11.341,0,0,1-3.407.471q-3.771,0-5.629-1.939t-1.858-6.356Z" transform="translate(-67.076 -465.97)" fill="#cb1871"/>
      <path id="패스_3924" data-name="패스 3924" d="M129.1,456.925h2.563v3.813h3.792v2.394h-3.792V466.9H129.1v-3.771H125.3v-2.394H129.1Z" transform="translate(-108.095 -456.925)" fill="#cb1871"/>
    </g>
  </g>
</svg>
