<svg xmlns="http://www.w3.org/2000/svg" xmlns:xlink="http://www.w3.org/1999/xlink" width="300" height="300" viewBox="0 0 300 300">
  <defs>
    <clipPath id="clip-path">
      <rect width="100" height="119" fill="none"/>
    </clipPath>
  </defs>
  <g id="그룹_3953" data-name="그룹 3953" transform="translate(-1125 -464)">
    <g id="box" transform="translate(1125 464)" fill="#fff" stroke="#d5d5d5" stroke-width="1">
      <rect width="300" height="300" stroke="none"/>
      <rect x="0.5" y="0.5" width="299" height="299" fill="none"/>
    </g>
    <g id="그룹_3949" data-name="그룹 3949">
      <g id="사각형_938" data-name="사각형 938" transform="translate(1205 524)" fill="#fff" stroke="#d4d4d4" stroke-width="1">
        <rect width="140" height="180" rx="4" stroke="none"/>
        <rect x="0.5" y="0.5" width="139" height="179" rx="3.5" fill="none"/>
      </g>
      <rect id="사각형_504" data-name="사각형 504" width="100" height="14" transform="translate(1225 544)" fill="#ddd"/>
      <g id="반복_그리드_1" data-name="반복 그리드 1" transform="translate(1225 566)" clip-path="url(#clip-path)">
        <g transform="translate(-361 -523)">
          <rect id="사각형_505" data-name="사각형 505" width="100" height="6" transform="translate(361 523)" fill="#eee"/>
        </g>
        <g transform="translate(-361 -513)">
          <rect id="사각형_505-2" data-name="사각형 505" width="100" height="6" transform="translate(361 523)" fill="#eee"/>
        </g>
        <g transform="translate(-361 -503)">
          <rect id="사각형_505-3" data-name="사각형 505" width="100" height="6" transform="translate(361 523)" fill="#eee"/>
        </g>
        <g transform="translate(-361 -493)">
          <rect id="사각형_505-4" data-name="사각형 505" width="100" height="6" transform="translate(361 523)" fill="#eee"/>
        </g>
        <g transform="translate(-361 -483)">
          <rect id="사각형_505-5" data-name="사각형 505" width="100" height="6" transform="translate(361 523)" fill="#eee"/>
        </g>
        <g transform="translate(-361 -473)">
          <rect id="사각형_505-6" data-name="사각형 505" width="100" height="6" transform="translate(361 523)" fill="#eee"/>
        </g>
        <g transform="translate(-361 -463)">
          <rect id="사각형_505-7" data-name="사각형 505" width="100" height="6" transform="translate(361 523)" fill="#eee"/>
        </g>
        <g transform="translate(-361 -453)">
          <rect id="사각형_505-8" data-name="사각형 505" width="100" height="6" transform="translate(361 523)" fill="#eee"/>
        </g>
        <g transform="translate(-361 -443)">
          <rect id="사각형_505-9" data-name="사각형 505" width="100" height="6" transform="translate(361 523)" fill="#eee"/>
        </g>
        <g transform="translate(-361 -433)">
          <rect id="사각형_505-10" data-name="사각형 505" width="100" height="6" transform="translate(361 523)" fill="#eee"/>
        </g>
        <g transform="translate(-361 -423)">
          <rect id="사각형_505-11" data-name="사각형 505" width="100" height="6" transform="translate(361 523)" fill="#eee"/>
        </g>
        <g transform="translate(-361 -413)">
          <rect id="사각형_505-12" data-name="사각형 505" width="100" height="6" transform="translate(361 523)" fill="#eee"/>
        </g>
      </g>
    </g>
  </g>
</svg>
