<svg xmlns="http://www.w3.org/2000/svg" xmlns:xlink="http://www.w3.org/1999/xlink" width="300" height="300" viewBox="0 0 300 300">
  <defs>
    <clipPath id="clip-path">
      <rect width="87" height="17" fill="none"/>
    </clipPath>
    <clipPath id="clip-path-2">
      <rect width="88" height="16" fill="none"/>
    </clipPath>
    <clipPath id="clip-path-3">
      <rect width="88" height="17" fill="none"/>
    </clipPath>
  </defs>
  <g id="그룹_3957" data-name="그룹 3957" transform="translate(-1125 -1634)">
    <g id="box" transform="translate(1125 1634)" fill="#fff" stroke="#d5d5d5" stroke-width="1">
      <rect width="300" height="300" stroke="none"/>
      <rect x="0.5" y="0.5" width="299" height="299" fill="none"/>
    </g>
    <g id="그룹_3947" data-name="그룹 3947" transform="translate(20 23)">
      <g id="그룹_3946" data-name="그룹 3946" transform="translate(1185 1674)">
        <g id="사각형_941" data-name="사각형 941" transform="translate(0)" fill="#fff" stroke="#d4d4d4" stroke-width="1">
          <rect width="122" height="158" rx="4" stroke="none"/>
          <rect x="0.5" y="0.5" width="121" height="157" rx="3.5" fill="none"/>
        </g>
        <rect id="사각형_504" data-name="사각형 504" width="87" height="13" transform="translate(18 116)" fill="#ddd"/>
        <g id="반복_그리드_1" data-name="반복 그리드 1" transform="translate(18 134)" clip-path="url(#clip-path)">
          <g transform="translate(-361 -523)">
            <rect id="사각형_505" data-name="사각형 505" width="100" height="6" transform="translate(361 523)" fill="#eee"/>
          </g>
          <g transform="translate(-361 -513)">
            <rect id="사각형_505-2" data-name="사각형 505" width="100" height="6" transform="translate(361 523)" fill="#eee"/>
          </g>
        </g>
        <g id="사각형_942" data-name="사각형 942" transform="translate(0)" fill="#f1f1f1" stroke="#d4d4d4" stroke-width="1">
          <path d="M4,0H118a4,4,0,0,1,4,4V105a0,0,0,0,1,0,0H0a0,0,0,0,1,0,0V4A4,4,0,0,1,4,0Z" stroke="none"/>
          <path d="M4,.5H118A3.5,3.5,0,0,1,121.5,4V104a.5.5,0,0,1-.5.5H1a.5.5,0,0,1-.5-.5V4A3.5,3.5,0,0,1,4,.5Z" fill="none"/>
        </g>
        <text id="image" transform="translate(62 59)" fill="#acacac" font-size="18" font-family="FontAwesome5Pro-Light, 'Font Awesome \35  Pro'" font-weight="300"><tspan x="-9" y="0">image</tspan></text>
      </g>
      <g id="그룹_3945" data-name="그룹 3945" transform="translate(1193.75 1682.75)">
        <g id="사각형_941-2" data-name="사각형 941" transform="translate(0.25 0.25)" fill="#fff" stroke="#d4d4d4" stroke-width="1">
          <rect width="122" height="157" rx="4" stroke="none"/>
          <rect x="0.5" y="0.5" width="121" height="156" rx="3.5" fill="none"/>
        </g>
        <rect id="사각형_504-2" data-name="사각형 504" width="88" height="12" transform="translate(17.25 116.25)" fill="#ddd"/>
        <g id="반복_그리드_1-2" data-name="반복 그리드 1" transform="translate(17.25 134.25)" clip-path="url(#clip-path-2)">
          <g transform="translate(-361 -523)">
            <rect id="사각형_505-3" data-name="사각형 505" width="100" height="6" transform="translate(361 523)" fill="#eee"/>
          </g>
          <g transform="translate(-361 -513)">
            <rect id="사각형_505-4" data-name="사각형 505" width="100" height="6" transform="translate(361 523)" fill="#eee"/>
          </g>
        </g>
        <g id="사각형_942-2" data-name="사각형 942" transform="translate(0.25 0.25)" fill="#f1f1f1" stroke="#d4d4d4" stroke-width="1">
          <path d="M4,0H118a4,4,0,0,1,4,4V105a0,0,0,0,1,0,0H0a0,0,0,0,1,0,0V4A4,4,0,0,1,4,0Z" stroke="none"/>
          <path d="M4,.5H118A3.5,3.5,0,0,1,121.5,4V104a.5.5,0,0,1-.5.5H1a.5.5,0,0,1-.5-.5V4A3.5,3.5,0,0,1,4,.5Z" fill="none"/>
        </g>
        <text id="image-2" data-name="image" transform="translate(61.25 59.25)" fill="#acacac" font-size="18" font-family="FontAwesome5Pro-Light, 'Font Awesome \35  Pro'" font-weight="300"><tspan x="-9" y="0">image</tspan></text>
      </g>
      <g id="그룹_3944" data-name="그룹 3944" transform="translate(1202.5 1691.5)">
        <g id="사각형_941-3" data-name="사각형 941" transform="translate(-0.5 0.5)" fill="#fff" stroke="#d4d4d4" stroke-width="1">
          <rect width="123" height="157" rx="4" stroke="none"/>
          <rect x="0.5" y="0.5" width="122" height="156" rx="3.5" fill="none"/>
        </g>
        <rect id="사각형_504-3" data-name="사각형 504" width="88" height="12" transform="translate(17.5 116.5)" fill="#ddd"/>
        <g id="반복_그리드_1-3" data-name="반복 그리드 1" transform="translate(17.5 133.5)" clip-path="url(#clip-path-3)">
          <g transform="translate(-361 -523)">
            <rect id="사각형_505-5" data-name="사각형 505" width="100" height="6" transform="translate(361 523)" fill="#eee"/>
          </g>
          <g transform="translate(-361 -513)">
            <rect id="사각형_505-6" data-name="사각형 505" width="100" height="6" transform="translate(361 523)" fill="#eee"/>
          </g>
        </g>
        <g id="사각형_942-3" data-name="사각형 942" transform="translate(-0.5 0.5)" fill="#f1f1f1" stroke="#d4d4d4" stroke-width="1">
          <path d="M4,0H119a4,4,0,0,1,4,4V105a0,0,0,0,1,0,0H0a0,0,0,0,1,0,0V4A4,4,0,0,1,4,0Z" stroke="none"/>
          <path d="M4,.5H119A3.5,3.5,0,0,1,122.5,4V104a.5.5,0,0,1-.5.5H1a.5.5,0,0,1-.5-.5V4A3.5,3.5,0,0,1,4,.5Z" fill="none"/>
        </g>
        <text id="image-polaroid" transform="translate(61.5 62.5)" fill="#d5d5d5" font-size="25" font-family="FontAwesome5Pro-Solid, 'Font Awesome \35  Pro'"><tspan x="-10.938" y="0">image-polaroid</tspan></text>
      </g>
    </g>
  </g>
</svg>
