<svg xmlns="http://www.w3.org/2000/svg" width="1510" height="473" viewBox="0 0 1510 473">
  <g id="그룹_2921" data-name="그룹 2921" transform="translate(-320 -856)">
    <text id="성공_:_0_" data-name="성공 : 0% " transform="translate(522 895)" fill="#1d1d1d" font-size="13" font-family="SourceHanSansKR-Regular, Source Han Sans KR" letter-spacing="-0.02em"><tspan x="0" y="0">성공 : 0% </tspan></text>
    <circle id="타원_2" data-name="타원 2" cx="4" cy="4" r="4" transform="translate(510 886)" fill="#fd004e"/>
    <g id="타원_3" data-name="타원 3" transform="translate(591.895 886)" fill="#707070" stroke="#707070" stroke-width="1">
      <circle cx="4" cy="4" r="4" stroke="none"/>
      <circle cx="4" cy="4" r="3.5" fill="none"/>
    </g>
    <text id="실패_:_0_" data-name="실패 : 0%  " transform="translate(662 895)" fill="#1d1d1d" font-size="13" font-family="SourceHanSansKR-Regular, Source Han Sans KR" letter-spacing="-0.02em"><tspan x="-56.29" y="0" xml:space="preserve">실패 : 0%  </tspan></text>
    <line id="선_202" data-name="선 202" x2="1510" transform="translate(320 1248.5)" fill="none" stroke="#dfdfdf" stroke-width="1"/>
    <g id="사각형_217" data-name="사각형 217" transform="translate(320 856)" fill="none" stroke="#dfdfdf" stroke-width="1">
      <rect width="170" height="105" rx="4" stroke="none"/>
      <rect x="0.5" y="0.5" width="169" height="104" rx="3.5" fill="none"/>
    </g>
    <text id="발송성공_발송실패" data-name="발송성공
발송실패" transform="translate(391 895)" fill="#1d1d1d" font-size="14" font-family="SourceHanSansKR-Regular, Source Han Sans KR" letter-spacing="-0.02em"><tspan x="-50.68" y="0">발송성공</tspan><tspan x="-50.68" y="40">발송실패</tspan></text>
    <text id="_156_34" data-name="156
34" transform="translate(470 897)" fill="#fd004e" font-size="18" font-family="SourceHanSansKR-Regular, Source Han Sans KR"><tspan x="-29.97" y="0">156</tspan><tspan fill="#000"><tspan x="-19.98" y="40">34</tspan></tspan></text>
    <g id="그룹_2061" data-name="그룹 2061" transform="translate(49.5 -958.125)">
      <rect id="사각형_123" data-name="사각형 123" width="15" height="131.653" transform="translate(737 2073.972)" fill="#fd7fa6"/>
      <rect id="사각형_178" data-name="사각형 178" width="15" height="150" transform="translate(737 2046.307)" fill="#ba7fff"/>
      <rect id="사각형_179" data-name="사각형 179" width="15" height="150" transform="translate(737 2043.853)" fill="#ffe57f"/>
      <rect id="사각형_180" data-name="사각형 180" width="15" height="91" transform="translate(737 2067.983)" fill="#febf7f"/>
      <rect id="사각형_181" data-name="사각형 181" width="15" height="50" transform="translate(737 2032.75)" fill="#7fd0ff"/>
    </g>
    <text id="_01_03" data-name="01/03" transform="translate(815 1268)" fill="#1d1d1d" font-size="12" font-family="SourceHanSansKR-Regular, Source Han Sans KR" letter-spacing="-0.02em"><tspan x="-30.384" y="0">01/03</tspan></text>
    <rect id="사각형_251" data-name="사각형 251" width="15" height="7" transform="translate(802.5 1241)" fill="#707070" opacity="0.6"/>
    <g id="그룹_2060" data-name="그룹 2060" transform="translate(-24.981 -626.314)">
      <rect id="사각형_123-2" data-name="사각형 123" width="15" height="105.222" transform="translate(1225.5 1769.093)" fill="#fd7fa6"/>
      <rect id="사각형_178-2" data-name="사각형 178" width="15" height="89.491" transform="translate(1225.5 1747.824)" fill="#ba7fff"/>
      <rect id="사각형_179-2" data-name="사각형 179" width="15" height="66" transform="translate(1225.5 1747.95)" fill="#ffe57f"/>
      <rect id="사각형_180-2" data-name="사각형 180" width="15" height="47" transform="translate(1225.5 1748.493)" fill="#febf7f"/>
      <rect id="사각형_233" data-name="사각형 233" width="15" height="66" transform="translate(1225.5 1708.625)" fill="#7fd0ff"/>
    </g>
    <text id="_01_06" data-name="01/06" transform="translate(1230.52 1268)" fill="#1d1d1d" font-size="12" font-family="SourceHanSansKR-Regular, Source Han Sans KR" letter-spacing="-0.02em"><tspan x="-30.384" y="0">01/06</tspan></text>
    <rect id="사각형_252" data-name="사각형 252" width="15" height="79" transform="translate(1216.52 1169)" fill="#707070" opacity="0.6"/>
    <text id="_01_02" data-name="01/02" transform="translate(677.328 1268)" fill="#1d1d1d" font-size="12" font-family="SourceHanSansKR-Regular, Source Han Sans KR" letter-spacing="-0.02em"><tspan x="-30.384" y="0">01/02</tspan></text>
    <rect id="사각형_255" data-name="사각형 255" width="15" height="44" transform="translate(663.328 1204)" fill="#707070" opacity="0.6"/>
    <g id="그룹_2067" data-name="그룹 2067" transform="translate(642 1006.277)">
      <rect id="사각형_123-3" data-name="사각형 123" width="15" height="200" transform="translate(0 41.222)" fill="#fd7fa6"/>
      <rect id="사각형_178-3" data-name="사각형 178" width="15" height="150" transform="translate(0 54.064)" fill="#ba7fff"/>
      <rect id="사각형_179-3" data-name="사각형 179" width="15" height="150" transform="translate(0 44.276)" fill="#ffe57f"/>
      <rect id="사각형_180-3" data-name="사각형 180" width="15" height="91" transform="translate(0 35.233)" fill="#febf7f"/>
      <rect id="사각형_181-2" data-name="사각형 181" width="15" height="50" fill="#7fd0ff"/>
    </g>
    <text id="_01_04" data-name="01/04" transform="translate(954.172 1268)" fill="#1d1d1d" font-size="12" font-family="SourceHanSansKR-Regular, Source Han Sans KR" letter-spacing="-0.02em"><tspan x="-30.384" y="0">01/04</tspan></text>
    <rect id="사각형_250" data-name="사각형 250" width="15" height="110" transform="translate(940.172 1138)" fill="#707070" opacity="0.6"/>
    <g id="그룹_2069" data-name="그룹 2069" transform="translate(187.173 -997.32)">
      <rect id="사각형_123-4" data-name="사각형 123" width="15" height="170.848" transform="translate(737 2073.972)" fill="#fd7fa6"/>
      <rect id="사각형_178-4" data-name="사각형 178" width="15" height="189.194" transform="translate(737 2046.307)" fill="#ba7fff"/>
      <rect id="사각형_179-4" data-name="사각형 179" width="15" height="189.194" transform="translate(737 2043.853)" fill="#ffe57f"/>
      <rect id="사각형_180-4" data-name="사각형 180" width="15" height="91" transform="translate(737 2084.85)" fill="#febf7f"/>
      <rect id="사각형_181-3" data-name="사각형 181" width="15" height="50" transform="translate(737 2032.75)" fill="#7fd0ff"/>
    </g>
    <rect id="사각형_247" data-name="사각형 247" width="15" height="50" transform="translate(1061.846 1074.625)" fill="#7fd0ff"/>
    <g id="그룹_2079" data-name="그룹 2079" transform="translate(-12.654 79)">
      <text id="_01_05" data-name="01/05" transform="translate(1106.5 1189)" fill="#1d1d1d" font-size="12" font-family="SourceHanSansKR-Regular, Source Han Sans KR" letter-spacing="-0.02em"><tspan x="-30.384" y="0">01/05</tspan></text>
      <rect id="사각형_249" data-name="사각형 249" width="15" height="44" transform="translate(1091 1125)" fill="#707070" opacity="0.6"/>
      <g id="그룹_2070" data-name="그룹 2070" transform="translate(-151 -767.246)">
        <rect id="사각형_123-5" data-name="사각형 123" width="15" height="166.653" transform="translate(1225.5 1769.093)" fill="#fd7fa6"/>
        <rect id="사각형_178-5" data-name="사각형 178" width="15" height="89.491" transform="translate(1225.5 1779.426)" fill="#ba7fff"/>
        <rect id="사각형_179-5" data-name="사각형 179" width="15" height="66" transform="translate(1225.5 1772.183)" fill="#ffe57f"/>
        <rect id="사각형_180-5" data-name="사각형 180" width="15" height="47" transform="translate(1225.5 1769.128)" fill="#febf7f"/>
        <rect id="사각형_233-2" data-name="사각형 233" width="15" height="66" transform="translate(1225.5 1708.625)" fill="#7fd0ff"/>
      </g>
    </g>
    <text id="_01_07" data-name="01/07" transform="translate(1368.191 1268)" fill="#1d1d1d" font-size="12" font-family="SourceHanSansKR-Regular, Source Han Sans KR" letter-spacing="-0.02em"><tspan x="-30.384" y="0">01/07</tspan></text>
    <rect id="사각형_253" data-name="사각형 253" width="15" height="32" transform="translate(1354.191 1216)" fill="#707070" opacity="0.6"/>
    <g id="그룹_2071" data-name="그룹 2071" transform="translate(113.191 -634)">
      <rect id="사각형_123-6" data-name="사각형 123" width="15" height="112.407" transform="translate(1225.5 1769.093)" fill="#fd7fa6"/>
      <rect id="사각형_178-6" data-name="사각형 178" width="15" height="89.491" transform="translate(1225.5 1751.52)" fill="#ba7fff"/>
      <rect id="사각형_179-6" data-name="사각형 179" width="15" height="66" transform="translate(1225.5 1750.784)" fill="#ffe57f"/>
      <rect id="사각형_180-6" data-name="사각형 180" width="15" height="47" transform="translate(1225.5 1750.906)" fill="#febf7f"/>
      <rect id="사각형_233-3" data-name="사각형 233" width="15" height="66" transform="translate(1225.5 1708.625)" fill="#7fd0ff"/>
    </g>
    <text id="_01_08" data-name="01/08" transform="translate(1507.863 1268)" fill="#1d1d1d" font-size="12" font-family="SourceHanSansKR-Regular, Source Han Sans KR" letter-spacing="-0.02em"><tspan x="-30.384" y="0">01/08</tspan></text>
    <rect id="사각형_254" data-name="사각형 254" width="15" height="29" transform="translate(1491.863 1219)" fill="#707070" opacity="0.6"/>
    <g id="그룹_2072" data-name="그룹 2072" transform="translate(250.364 -584)">
      <rect id="사각형_123-7" data-name="사각형 123" width="15" height="62.407" transform="translate(1225.5 1769.093)" fill="#fd7fa6"/>
      <rect id="사각형_178-7" data-name="사각형 178" width="15" height="89.491" transform="translate(1225.5 1725.799)" fill="#ba7fff"/>
      <rect id="사각형_179-7" data-name="사각형 179" width="15" height="66" transform="translate(1225.5 1731.061)" fill="#ffe57f"/>
      <rect id="사각형_180-7" data-name="사각형 180" width="15" height="47" transform="translate(1225.5 1734.111)" fill="#febf7f"/>
      <rect id="사각형_233-4" data-name="사각형 233" width="15" height="66" transform="translate(1225.5 1708.625)" fill="#7fd0ff"/>
    </g>
    <text id="Push_RCS_알림톡_친구톡_SMS" data-name="Push                    RCS                      알림톡                     친구톡                      SMS" transform="translate(881 1325)" fill="#1d1d1d" font-size="14" font-family="SourceHanSansKR-Regular, Source Han Sans KR" letter-spacing="-0.02em"><tspan x="0" y="0" xml:space="preserve">Push                    RCS                      알림톡                     친구톡                      SMS</tspan></text>
    <rect id="사각형_126" data-name="사각형 126" width="8" height="8" transform="translate(868 1316)" fill="#ff004e" opacity="0.5"/>
    <rect id="사각형_127" data-name="사각형 127" width="8" height="8" transform="translate(957 1316)" fill="#70f" opacity="0.5"/>
    <rect id="사각형_128" data-name="사각형 128" width="8" height="8" transform="translate(1044 1316)" fill="#fc0" opacity="0.5"/>
    <rect id="사각형_129" data-name="사각형 129" width="8" height="8" transform="translate(1144 1316)" fill="#ff8000" opacity="0.5"/>
    <rect id="사각형_130" data-name="사각형 130" width="8" height="8" transform="translate(1244 1316)" fill="#00a2ff" opacity="0.5"/>
  </g>
</svg>
