<svg xmlns="http://www.w3.org/2000/svg" width="185.369" height="23" viewBox="0 0 185.369 23">
  <g id="그룹_124" data-name="그룹 124" transform="translate(-113.595 -328.521)">
    <text id="통합메시징_클라우드" data-name="통합메시징 클라우드" transform="translate(140.964 347.521)" fill="#fff" font-size="17" font-family="MalgunGothic, Malgun Gothic"><tspan x="0" y="0">통합메시징</tspan><tspan y="0" font-family="SegoeUI, Segoe UI"> </tspan><tspan y="0">클라우드</tspan></text>
    <g id="그룹_123" data-name="그룹 123" transform="translate(113.595 330.367)">
      <path id="패스_14" data-name="패스 14" d="M113.6,334.118h3.468V344.79a5.714,5.714,0,0,0,.729,3.116,2.664,2.664,0,0,0,2.427,1.135,5.029,5.029,0,0,0,1.7-.251,2.5,2.5,0,0,0,1.136-.812,3.51,3.51,0,0,0,.634-1.456,10.706,10.706,0,0,0,.19-2.185V334.118h3.468v10.45a9.973,9.973,0,0,1-.466,3.24,5.511,5.511,0,0,1-1.375,2.223,5.6,5.6,0,0,1-2.236,1.292,10.072,10.072,0,0,1-3.025.419,6.622,6.622,0,0,1-5-1.722q-1.649-1.722-1.65-5.644Z" transform="translate(-113.595 -330.748)" fill="#fff"/>
      <path id="패스_15" data-name="패스 15" d="M133.97,330.367h2.276v3.386h3.367v2.126h-3.367v3.348H133.97v-3.348H130.6v-2.126h3.367Z" transform="translate(-115.323 -330.367)" fill="#fff"/>
    </g>
  </g>
</svg>
