<svg xmlns="http://www.w3.org/2000/svg" xmlns:xlink="http://www.w3.org/1999/xlink" width="350" height="629" viewBox="0 0 350 629">
  <defs>
    <filter id="사각형_682" x="0" y="0" width="350" height="629" filterUnits="userSpaceOnUse">
      <feOffset dx="10" dy="10" input="SourceAlpha"/>
      <feGaussianBlur stdDeviation="10" result="blur"/>
      <feFlood flood-opacity="0.09"/>
      <feComposite operator="in" in2="blur"/>
      <feComposite in="SourceGraphic"/>
    </filter>
  </defs>
  <g id="그룹_3948" data-name="그룹 3948" transform="translate(-300 -208)">
    <g transform="matrix(1, 0, 0, 1, 300, 208)" filter="url(#사각형_682)">
      <g id="사각형_682-2" data-name="사각형 682" transform="translate(20 20)" fill="#fff" stroke="#ddd" stroke-width="1">
        <rect width="290" height="569" rx="28" stroke="none"/>
        <rect x="0.5" y="0.5" width="289" height="568" rx="27.5" fill="none"/>
      </g>
    </g>
    <path id="패스_3401" data-name="패스 3401" d="M18.7,0H252.447c10.328,0,18.7,9.869,18.7,22.044V529.05c0,12.174-8.372,22.044-18.7,22.044H18.7C8.372,551.094,0,541.225,0,529.05V22.044C0,9.869,8.372,0,18.7,0Z" transform="translate(329.426 236.906)" fill="#e9e9e9"/>
    <circle id="타원_22" data-name="타원 22" cx="5" cy="5" r="5" transform="translate(460 244)" fill="#505050"/>
  </g>
</svg>
