<svg xmlns="http://www.w3.org/2000/svg" width="80" height="116" viewBox="0 0 80 116">
  <g id="그룹_3206" data-name="그룹 3206" transform="translate(0.15)">
    <g id="사각형_803" data-name="사각형 803" transform="translate(-0.15)" fill="#fff" stroke="#d5d5d5" stroke-width="1">
      <rect width="80" height="116" stroke="none"/>
      <rect x="0.5" y="0.5" width="79" height="115" fill="none"/>
    </g>
    <g id="그룹_3189" data-name="그룹 3189" transform="translate(9 8)">
      <rect id="사각형_805" data-name="사각형 805" width="28" height="7" transform="translate(-0.15)" fill="#ddd"/>
      <rect id="사각형_806" data-name="사각형 806" width="28" height="3" transform="translate(-0.15 11)" fill="#e9e9e9"/>
      <rect id="사각형_807" data-name="사각형 807" width="28" height="3" transform="translate(-0.15 39)" fill="#e9e9e9"/>
      <rect id="사각형_808" data-name="사각형 808" width="28" height="3" transform="translate(-0.15 81)" fill="#e9e9e9"/>
      <rect id="사각형_809" data-name="사각형 809" width="28" height="3" transform="translate(-0.15 18)" fill="#e9e9e9"/>
      <rect id="사각형_810" data-name="사각형 810" width="28" height="3" transform="translate(-0.15 46)" fill="#e9e9e9"/>
      <rect id="사각형_811" data-name="사각형 811" width="28" height="3" transform="translate(-0.15 88)" fill="#e9e9e9"/>
      <rect id="사각형_812" data-name="사각형 812" width="28" height="3" transform="translate(-0.15 25)" fill="#e9e9e9"/>
      <rect id="사각형_813" data-name="사각형 813" width="28" height="3" transform="translate(-0.15 67)" fill="#e9e9e9"/>
      <rect id="사각형_814" data-name="사각형 814" width="28" height="3" transform="translate(-0.15 53)" fill="#e9e9e9"/>
      <rect id="사각형_815" data-name="사각형 815" width="28" height="3" transform="translate(-0.15 95)" fill="#e9e9e9"/>
      <rect id="사각형_816" data-name="사각형 816" width="28" height="3" transform="translate(-0.15 32)" fill="#e9e9e9"/>
      <rect id="사각형_817" data-name="사각형 817" width="28" height="3" transform="translate(-0.15 74)" fill="#e9e9e9"/>
      <rect id="사각형_818" data-name="사각형 818" width="28" height="3" transform="translate(-0.15 60)" fill="#e9e9e9"/>
    </g>
    <g id="그룹_3188" data-name="그룹 3188" transform="translate(40 8)">
      <rect id="사각형_804" data-name="사각형 804" width="32" height="99" transform="translate(-0.15)" fill="#f1f1f1"/>
      <text id="image-polaroid" transform="translate(7.85 56)" fill="#d5d5d5" font-size="19" font-family="FontAwesome5Pro-Solid, 'Font Awesome \35  Pro'"><tspan x="0" y="0">image-polaroid</tspan></text>
    </g>
  </g>
</svg>
