<?xml version="1.0" encoding="utf-8"?>
<!-- Generator: Adobe Illustrator 26.0.2, SVG Export Plug-In . SVG Version: 6.00 Build 0)  -->
<svg version="1.1" id="레이어_1" xmlns="http://www.w3.org/2000/svg" xmlns:xlink="http://www.w3.org/1999/xlink" x="0px"
	 y="0px" viewBox="0 0 130.6 23.6" style="enable-background:new 0 0 130.6 23.6;" xml:space="preserve">
<style type="text/css">
	.st0{fill:#595B5E;}
	.st1{fill:#CB1871;}
</style>
<g id="그룹_3889" transform="translate(-67.076 -456.925)">
	<g id="그룹_3887" transform="translate(102.127 460.667)">
		<path id="패스_3918" class="st0" d="M12.2,0.3V14c0,0.6,0,1.3-0.1,2c0,0.6-0.1,1.2-0.2,1.9H9.6V7.4H7.7v4.9H1.6
			c-0.4,0-0.8-0.1-1.1-0.4C0.1,11.7,0,11.2,0,10.8V1h7.7v4.1h1.9V0.3L12.2,0.3z M2.7,9.8c0,0.2,0.1,0.3,0.3,0.3H5V3.2H2.7L2.7,9.8z
			 M16.1,0v14.2c0,0.4,0,0.7,0,1.1c0,0.4,0,0.8-0.1,1.2c0,0.4-0.1,0.7-0.1,1.1c0,0.4-0.1,0.7-0.1,0.9h-2.4V0L16.1,0z"/>
		<path id="패스_3919" class="st0" d="M22.5,0.7h2.8v3.5c0,0.7,0.1,1.5,0.3,2.2C25.7,7,26,7.6,26.4,8.1c0.4,0.5,0.9,1,1.4,1.4
			c0.7,0.4,1.4,0.8,2.1,1.1l-1.4,2.3c-0.4-0.2-0.9-0.4-1.3-0.6c-0.4-0.3-0.8-0.6-1.2-0.9c-0.4-0.3-0.7-0.7-1.1-1.1
			c-0.3-0.4-0.6-0.8-0.8-1.3c-0.5,0.9-1.1,1.7-2,2.3c-0.9,0.7-1.9,1.3-2.9,1.7l-1.1-1.9c0.7-0.3,1.4-0.7,2.1-1.2
			c0.5-0.4,1-0.9,1.3-1.5c0.3-0.6,0.6-1.2,0.7-1.9c0.1-0.8,0.2-1.5,0.2-2.3L22.5,0.7z M30.9,0h2.8v14.6c0,0.6,0,1.3-0.1,2
			s-0.1,1.3-0.2,1.9h-2.5L30.9,0z"/>
		<path id="패스_3920" class="st0" d="M37.3,1h9.9v2.3h-3.4v0.8c0,0.7,0.1,1.5,0.2,2.2c0.1,0.6,0.4,1.2,0.7,1.7
			c0.4,0.5,0.8,1,1.4,1.4c0.6,0.4,1.3,0.8,2.1,1l-1.4,2.3c-0.9-0.4-1.7-0.9-2.5-1.5c-0.8-0.6-1.4-1.4-1.8-2.4
			c-0.5,0.9-1.1,1.8-2,2.4c-0.9,0.7-1.8,1.3-2.9,1.7L36.6,11c0.7-0.3,1.4-0.7,2.1-1.3c0.5-0.4,1-0.9,1.3-1.5
			c0.3-0.6,0.6-1.2,0.7-1.9c0.1-0.7,0.2-1.5,0.2-2.3V3.3h-3.6L37.3,1z M49.2,0H52v14.6c0,0.6,0,1.3-0.1,2s-0.1,1.3-0.2,1.9h-2.4
			L49.2,0z"/>
		<path id="패스_3921" class="st0" d="M55.8,9.1c0-1,0.3-2,1-2.7h-2V4.3h10.7v2.2h-2c0.1,0.2,0.3,0.3,0.4,0.5
			c0.1,0.2,0.2,0.4,0.3,0.6h3.1V0h2.8v14.6c0,0.6,0,1.3-0.1,2c-0.1,0.7-0.1,1.3-0.2,1.9h-2.4V9.9h-2.8c-0.1,0.9-0.5,1.8-1.2,2.4
			c-0.9,0.7-2,1-3.1,0.9c-0.7,0-1.3-0.1-2-0.3c-0.5-0.2-1-0.5-1.3-0.8c-0.4-0.4-0.6-0.8-0.8-1.3C55.9,10.3,55.8,9.7,55.8,9.1z
			 M57.4,0.1c0.3,0.1,0.5,0.2,0.8,0.3c0.3,0.1,0.6,0.1,1,0.2c0.3,0.1,0.7,0.1,1,0.1c0.3,0,0.6,0,0.9,0h1.7v2.2h-2.5
			c-0.6,0-1.1,0-1.7-0.1c-0.5-0.1-1-0.2-1.5-0.3L57.4,0.1z M60.2,7.1c-0.5,0-0.9,0.1-1.3,0.5C58.5,8,58.4,8.5,58.4,9
			c0,1.3,0.6,2,1.8,2c0.5,0,1-0.1,1.4-0.5c0.3-0.4,0.5-1,0.4-1.5c0-0.5-0.1-1.1-0.5-1.4C61.1,7.3,60.7,7.1,60.2,7.1L60.2,7.1z"/>
		<path id="패스_3922" class="st0" d="M89.6,13v2.3H72.9V13H89.6z M78.1,0.6v2.7h6.3V0.6h2.8v9.6H76.9c-0.4,0-0.9-0.1-1.2-0.4
			c-0.3-0.4-0.4-0.8-0.4-1.3V0.6H78.1z M84.4,7.9V5.6h-6.3v2c0,0.1,0,0.2,0.1,0.3c0.1,0.1,0.1,0.1,0.2,0.1L84.4,7.9z"/>
	</g>
	<g id="그룹_3888" transform="translate(67.076 456.925)">
		<path id="패스_3923" class="st1" d="M0,3.8h3.9v12c-0.1,1.2,0.2,2.4,0.8,3.5c0.6,0.9,1.7,1.4,2.7,1.3c0.6,0,1.3-0.1,1.9-0.3
			c0.5-0.2,0.9-0.5,1.3-0.9c0.4-0.5,0.6-1,0.7-1.6c0.2-0.8,0.2-1.6,0.2-2.5V3.8h3.9v11.8c0,1.2-0.1,2.5-0.5,3.6
			c-0.3,0.9-0.8,1.8-1.5,2.5c-0.7,0.7-1.6,1.2-2.5,1.5c-1.1,0.3-2.3,0.5-3.4,0.5c-2.5,0-4.4-0.6-5.6-1.9S0,18.3,0,15.3L0,3.8z"/>
		<path id="패스_3924" class="st1" d="M21,0h2.6v3.8h3.8v2.4h-3.8V10H21V6.2h-3.8V3.8H21V0z"/>
	</g>
</g>
</svg>
